<svg xmlns="http://www.w3.org/2000/svg" version="1.1" xmlns:xlink="http://www.w3.org/1999/xlink" xmlns:svgjs="http://svgjs.dev/svgjs" width="2000" height="292" viewBox="0 0 2000 292"><g transform="matrix(1,0,0,1,-1.2121212121212466,-0.8641951899726337)"><svg viewBox="0 0 396 58" data-background-color="#ffffff" preserveAspectRatio="xMidYMid meet" height="292" width="2000" xmlns="http://www.w3.org/2000/svg" xmlns:xlink="http://www.w3.org/1999/xlink"><g id="tight-bounds" transform="matrix(1,0,0,1,0.2400000000000091,0.17165520896716657)"><svg viewBox="0 0 395.52 57.65668958206565" height="57.65668958206565" width="395.52"><g><svg viewBox="0 0 507.1067022676161 73.92317384109256" height="57.65668958206565" width="395.52"><g><rect width="6.6333015977165495" height="73.92317384109256" x="87.5887368015316" y="0" fill="#111111" opacity="1" stroke-width="0" stroke="transparent" fill-opacity="1" class="rect-qz-0" data-fill-palette-color="primary" rx="1%" id="qz-0" data-palette-color="#111111"></rect></g><g transform="matrix(1,0,0,1,111.58670226761608,0.1838884921420174)"><svg viewBox="0 0 395.52 73.55539685680853" height="73.55539685680853" width="395.52"><g id="textblocktransform"><svg viewBox="0 0 395.52 73.55539685680853" height="73.55539685680853" width="395.52" id="textblock"><g><svg viewBox="0 0 395.52 73.55539685680853" height="73.55539685680853" width="395.52"><g transform="matrix(1,0,0,1,0,0)"><svg width="395.52" viewBox="3.86 -33.28 232.73999999999998 43.290850697216996" height="73.55539685680853" data-palette-color="#111111"><path d="M23.02-29.52Q24.02-29.52 24.44-29.15 24.85-28.78 24.85-27.93L24.85-27.93 24.85-22.31Q24.85-21.46 24.44-21.09 24.02-20.73 23.02-20.73L23.02-20.73Q22.09-20.73 21.75-21.36L21.75-21.36Q20.58-23.58 18.46-24.74 16.33-25.9 13.62-25.9L13.62-25.9Q10.94-25.9 9.46-24.66 7.98-23.41 7.98-21.31L7.98-21.31Q7.98-20.31 8.5-19.63 9.01-18.95 9.96-18.46L9.96-18.46Q10.82-18.02 11.96-17.74 13.11-17.46 15.04-17.09L15.04-17.09Q17.14-16.67 18.37-16.39 19.6-16.11 20.8-15.63L20.8-15.63Q23.24-14.62 24.62-12.83 26-11.04 26-7.98L26-7.98Q26-5.44 24.8-3.53 23.61-1.61 21.28-0.54 18.95 0.54 15.67 0.54L15.67 0.54Q13.23 0.54 11.15-0.35 9.06-1.25 7.52-2.95L7.52-2.95 7.52-1.05Q7.52-0.2 7.1 0.17 6.69 0.54 5.69 0.54L5.69 0.54Q4.69 0.54 4.27 0.17 3.86-0.2 3.86-1.05L3.86-1.05 3.86-8.37Q3.86-9.23 4.27-9.59 4.69-9.96 5.69-9.96L5.69-9.96Q6.74-9.96 7.1-8.94L7.1-8.94Q8.11-6.1 10.29-4.59 12.48-3.08 15.67-3.08L15.67-3.08Q18.8-3.08 20.47-4.42 22.14-5.76 22.14-7.98L22.14-7.98Q22.14-9.52 21.37-10.49 20.61-11.45 19.14-12.08L19.14-12.08Q18.21-12.5 17.11-12.76 16.02-13.01 14.11-13.4L14.11-13.4Q12.11-13.79 10.75-14.14 9.4-14.48 8.25-14.99L8.25-14.99Q6.3-15.87 5.21-17.37 4.13-18.87 4.13-21.31L4.13-21.31Q4.13-23.83 5.33-25.68 6.54-27.54 8.7-28.53 10.86-29.52 13.62-29.52L13.62-29.52Q15.77-29.52 17.77-28.69 19.78-27.86 21.19-26.44L21.19-26.44 21.19-27.93Q21.19-28.78 21.61-29.15 22.02-29.52 23.02-29.52L23.02-29.52ZM45.19-23.1Q48.73-23.1 51.23-21.67 53.73-20.24 55.08-17.71 56.42-15.19 56.61-11.89L56.61-11.89Q56.61-11.06 56.26-10.72 55.91-10.38 55.08-10.38L55.08-10.38 37.4-10.38Q37.57-6.74 39.56-4.87 41.55-3 45.19-3L45.19-3Q47.43-3 49.63-3.58 51.83-4.15 53.49-5.1L53.49-5.1Q53.9-5.32 54.25-5.32L54.25-5.32Q55.1-5.32 55.64-4.03L55.64-4.03Q55.86-3.52 55.86-3.1L55.86-3.1Q55.86-2.12 54.78-1.59L54.78-1.59Q52.9-0.63 50.34-0.05 47.78 0.54 45.19 0.54L45.19 0.54Q41.5 0.54 38.89-0.88 36.28-2.29 34.91-4.96 33.54-7.62 33.54-11.28L33.54-11.28Q33.54-14.77 35.03-17.46 36.52-20.14 39.16-21.62 41.79-23.1 45.19-23.1L45.19-23.1ZM45.19-19.56Q42.19-19.56 40.22-18.03 38.25-16.5 37.64-13.79L37.64-13.79 52.56-13.79Q52.05-16.6 50.21-18.08 48.36-19.56 45.19-19.56L45.19-19.56ZM71.14-29.52Q72.14-29.52 72.55-29.15 72.97-28.78 72.97-27.93L72.97-27.93 72.97-20.61 83-20.61Q83.83-20.61 84.19-20.23 84.54-19.85 84.54-18.95L84.54-18.95Q84.54-18.04 84.19-17.66 83.83-17.29 83-17.29L83-17.29 72.97-17.29 72.97-8.4Q72.97-5.62 73.93-4.32 74.9-3.03 77.29-3.03L77.29-3.03Q78.93-3.03 80.73-3.69 82.54-4.35 84.22-5.44L84.22-5.44Q84.57-5.69 84.98-5.69L84.98-5.69Q85.81-5.69 86.4-4.57L86.4-4.57Q86.71-3.93 86.71-3.47L86.71-3.47Q86.71-2.69 85.91-2.2L85.91-2.2Q84-1 81.66-0.23 79.32 0.54 77.29 0.54L77.29 0.54Q73.14 0.54 71.22-1.62 69.31-3.78 69.31-8.08L69.31-8.08 69.31-17.29 64.35-17.29Q63.52-17.29 63.17-17.66 62.81-18.04 62.81-18.95L62.81-18.95Q62.81-19.85 63.17-20.23 63.52-20.61 64.35-20.61L64.35-20.61 69.31-20.61 69.31-27.93Q69.31-28.78 69.72-29.15 70.14-29.52 71.14-29.52L71.14-29.52ZM105.8-22.56Q106.63-22.56 106.99-22.18 107.34-21.8 107.34-20.9L107.34-20.9 107.34-3.32 115.18-3.32Q116.01-3.32 116.36-2.94 116.72-2.56 116.72-1.66L116.72-1.66Q116.72-0.76 116.36-0.38 116.01 0 115.18 0L115.18 0 96.04 0Q95.21 0 94.85-0.38 94.5-0.76 94.5-1.66L94.5-1.66Q94.5-2.56 94.85-2.94 95.21-3.32 96.04-3.32L96.04-3.32 103.68-3.32 103.68-19.24 97.5-19.24Q96.67-19.24 96.32-19.62 95.96-20 95.96-20.9L95.96-20.9Q95.96-21.8 96.32-22.18 96.67-22.56 97.5-22.56L97.5-22.56 105.8-22.56ZM105.02-33.28Q106.36-33.28 106.85-32.92 107.34-32.57 107.34-31.69L107.34-31.69 107.34-28.52Q107.34-27.64 106.85-27.28 106.36-26.93 105.02-26.93L105.02-26.93Q103.68-26.93 103.19-27.28 102.7-27.64 102.7-28.52L102.7-28.52 102.7-31.69Q102.7-32.57 103.19-32.92 103.68-33.28 105.02-33.28L105.02-33.28ZM147.13-22.56Q147.96-22.56 148.32-22.18 148.67-21.8 148.67-20.9L148.67-20.9Q148.67-20 148.32-19.62 147.96-19.24 147.13-19.24L147.13-19.24 145.62-19.24 135.63 1.22Q134.05 4.47 132.53 6.32 131.02 8.18 129.13 9.05 127.24 9.91 124.53 10.01L124.53 10.01Q123.67 10.03 123.21 9.58 122.74 9.13 122.74 7.98L122.74 7.98Q122.74 6.4 124.04 6.32L124.04 6.32Q126.38 6.2 127.76 5.54 129.14 4.88 130.3 3.28 131.46 1.68 133.14-1.71L133.14-1.71 124.21-19.24 122.67-19.24Q121.84-19.24 121.49-19.62 121.13-20 121.13-20.9L121.13-20.9Q121.13-21.8 121.49-22.18 121.84-22.56 122.67-22.56L122.67-22.56 131.31-22.56Q132.14-22.56 132.5-22.18 132.85-21.8 132.85-20.9L132.85-20.9Q132.85-20 132.5-19.62 132.14-19.24 131.31-19.24L131.31-19.24 128.19-19.24 135.07-5.52 141.64-19.24 139.47-19.24Q138.64-19.24 138.28-19.62 137.93-20 137.93-20.9L137.93-20.9Q137.93-21.8 138.28-22.18 138.64-22.56 139.47-22.56L139.47-22.56 147.13-22.56ZM164.98-23.1Q169.57-23.1 171.86-21.04 174.16-18.99 174.16-14.97L174.16-14.97 174.16-5.25Q174.16-3.32 175.77-3.32L175.77-3.32 176.62-3.32Q177.45-3.32 177.81-2.94 178.16-2.56 178.16-1.66L178.16-1.66Q178.16-0.76 177.81-0.38 177.45 0 176.62 0L176.62 0 175.06 0Q173.47 0 172.34-0.79 171.2-1.59 170.86-3.13L170.86-3.13Q168.86-1.37 166.53-0.42 164.2 0.54 161.58 0.54L161.58 0.54Q159.12 0.54 157.23-0.31 155.33-1.15 154.26-2.76 153.19-4.37 153.19-6.59L153.19-6.59Q153.19-10.45 155.94-12.29 158.7-14.14 163.07-14.14L163.07-14.14Q166.96-14.14 170.5-12.89L170.5-12.89 170.5-14.97Q170.5-17.33 169.16-18.44 167.83-19.56 164.88-19.56L164.88-19.56Q163.05-19.56 161.07-19.04 159.09-18.53 157.31-17.63L157.31-17.63Q156.9-17.41 156.55-17.41L156.55-17.41Q155.75-17.41 155.21-18.58L155.21-18.58Q154.94-19.17 154.94-19.56L154.94-19.56Q154.94-20.41 155.85-20.87L155.85-20.87Q157.9-21.95 160.25-22.52 162.61-23.1 164.98-23.1L164.98-23.1ZM163.1-10.69Q160.29-10.69 158.67-9.73 157.04-8.76 157.04-6.67L157.04-6.67Q157.04-4.88 158.28-3.89 159.51-2.91 161.73-2.91L161.73-2.91Q166.59-2.91 170.5-6.93L170.5-6.93 170.5-9.59Q168.84-10.13 166.93-10.41 165.03-10.69 163.1-10.69L163.1-10.69ZM208.55-22.56Q209.38-22.56 209.74-22.18 210.09-21.8 210.09-20.9L210.09-20.9Q210.09-20 209.74-19.62 209.38-19.24 208.55-19.24L208.55-19.24 207.97-19.24 203.16-1.05Q202.91-0.17 202.44 0.18 201.96 0.54 201.03 0.54L201.03 0.54Q199.99 0.54 199.39 0.16 198.79-0.22 198.5-1.05L198.5-1.05 194.76-11.65 190.98-1.05Q190.68-0.22 190.06 0.16 189.44 0.54 188.39 0.54L188.39 0.54Q187.46 0.54 187 0.18 186.53-0.17 186.31-1.05L186.31-1.05 181.6-19.24 181.16-19.24Q180.33-19.24 179.98-19.62 179.62-20 179.62-20.9L179.62-20.9Q179.62-21.8 179.98-22.18 180.33-22.56 181.16-22.56L181.16-22.56 188.34-22.56Q189.17-22.56 189.52-22.18 189.88-21.8 189.88-20.9L189.88-20.9Q189.88-20 189.52-19.62 189.17-19.24 188.34-19.24L188.34-19.24 185.34-19.24 188.85-5.03 192.93-16.36Q193.1-16.87 193.56-17.19 194.03-17.5 194.78-17.5L194.78-17.5Q196.32-17.5 196.66-16.53L196.66-16.53 200.72-5.03 204.33-19.24 201.86-19.24Q201.03-19.24 200.68-19.62 200.33-20 200.33-20.9L200.33-20.9Q200.33-21.8 200.68-22.18 201.03-22.56 201.86-22.56L201.86-22.56 208.55-22.56ZM221.03-29.52Q222.03-29.52 222.44-29.15 222.86-28.78 222.86-27.93L222.86-27.93 222.86-20.61 232.89-20.61Q233.72-20.61 234.08-20.23 234.43-19.85 234.43-18.95L234.43-18.95Q234.43-18.04 234.08-17.66 233.72-17.29 232.89-17.29L232.89-17.29 222.86-17.29 222.86-8.4Q222.86-5.62 223.82-4.32 224.79-3.03 227.18-3.03L227.18-3.03Q228.82-3.03 230.62-3.69 232.43-4.35 234.11-5.44L234.11-5.44Q234.46-5.69 234.87-5.69L234.87-5.69Q235.7-5.69 236.29-4.57L236.29-4.57Q236.6-3.93 236.6-3.47L236.6-3.47Q236.6-2.69 235.8-2.2L235.8-2.2Q233.89-1 231.55-0.23 229.21 0.54 227.18 0.54L227.18 0.54Q223.03 0.54 221.11-1.62 219.2-3.78 219.2-8.08L219.2-8.08 219.2-17.29 214.24-17.29Q213.41-17.29 213.06-17.66 212.7-18.04 212.7-18.95L212.7-18.95Q212.7-19.85 213.06-20.23 213.41-20.61 214.24-20.61L214.24-20.61 219.2-20.61 219.2-27.93Q219.2-28.78 219.61-29.15 220.03-29.52 221.03-29.52L221.03-29.52Z" opacity="1" transform="matrix(1,0,0,1,0,0)" fill="#111111" class="wordmark-text-0" data-fill-palette-color="primary" id="text-0"></path></svg></g></svg></g></svg></g></svg></g><g transform="matrix(1,0,0,1,0,0.1838884921420174)"><svg viewBox="0 0 70.22407293316367 73.55539685680853" height="73.55539685680853" width="70.22407293316367"><g><svg version="1.0" xmlns="http://www.w3.org/2000/svg" xmlns:xlink="http://www.w3.org/1999/xlink" x="0" y="0" viewBox="0 0 95.471 100" enable-background="new 0 0 95.471 100" xml:space="preserve" width="70.22407293316367" height="73.55539685680853" class="icon-icon-0" data-fill-palette-color="accent" id="icon-0"><path d="M47.735 0c-0.083 2.825-1.738 13.412-19.799 30.934C10.554 47.797 2.439 49.824 0 50c2.439 0.178 10.554 2.204 27.936 19.066C45.997 86.589 47.652 97.177 47.735 100c0.083-2.823 1.739-13.411 19.798-30.934C84.917 52.204 93.031 50.178 95.471 50c-2.439-0.176-10.554-2.203-27.938-19.066C49.475 13.412 47.819 2.825 47.735 0z" fill="#111111" data-fill-palette-color="accent"></path></svg></g></svg></g></svg></g><defs></defs></svg><rect width="395.52" height="57.65668958206565" fill="none" stroke="none" visibility="hidden"></rect></g></svg></g></svg>